<svg xmlns="http://www.w3.org/2000/svg" xmlns:xlink="http://www.w3.org/1999/xlink" width="500" zoomAndPan="magnify" viewBox="0 0 375 149.999998" height="200" preserveAspectRatio="xMidYMid meet" version="1.0"><defs><g/><clipPath id="4e5e311c18"><path d="M 266.492188 85.636719 L 279.609375 85.636719 L 279.609375 98.757812 L 266.492188 98.757812 Z M 266.492188 85.636719 " clip-rule="nonzero"/></clipPath><clipPath id="7364b5a429"><path d="M 273.050781 85.636719 C 272.179688 85.636719 271.34375 85.804688 270.539062 86.136719 C 269.734375 86.472656 269.027344 86.945312 268.410156 87.558594 C 267.796875 88.175781 267.324219 88.882812 266.988281 89.6875 C 266.65625 90.492188 266.492188 91.328125 266.492188 92.199219 C 266.492188 93.066406 266.65625 93.90625 266.988281 94.707031 C 267.324219 95.511719 267.796875 96.222656 268.410156 96.835938 C 269.027344 97.453125 269.734375 97.925781 270.539062 98.257812 C 271.34375 98.589844 272.179688 98.757812 273.050781 98.757812 C 273.917969 98.757812 274.757812 98.589844 275.558594 98.257812 C 276.363281 97.925781 277.074219 97.453125 277.6875 96.835938 C 278.304688 96.222656 278.777344 95.511719 279.109375 94.707031 C 279.441406 93.90625 279.609375 93.066406 279.609375 92.199219 C 279.609375 91.328125 279.441406 90.492188 279.109375 89.6875 C 278.777344 88.882812 278.304688 88.175781 277.6875 87.558594 C 277.074219 86.945312 276.363281 86.472656 275.558594 86.136719 C 274.757812 85.804688 273.917969 85.636719 273.050781 85.636719 Z M 273.050781 85.636719 " clip-rule="nonzero"/></clipPath><clipPath id="b03c60645c"><path d="M 292.730469 85.636719 L 305.847656 85.636719 L 305.847656 98.757812 L 292.730469 98.757812 Z M 292.730469 85.636719 " clip-rule="nonzero"/></clipPath><clipPath id="a0c0652d93"><path d="M 299.289062 85.636719 C 298.417969 85.636719 297.582031 85.804688 296.777344 86.136719 C 295.972656 86.472656 295.265625 86.945312 294.648438 87.558594 C 294.035156 88.175781 293.5625 88.882812 293.226562 89.6875 C 292.894531 90.492188 292.730469 91.328125 292.730469 92.199219 C 292.730469 93.066406 292.894531 93.90625 293.226562 94.707031 C 293.5625 95.511719 294.035156 96.222656 294.648438 96.835938 C 295.265625 97.453125 295.972656 97.925781 296.777344 98.257812 C 297.582031 98.589844 298.417969 98.757812 299.289062 98.757812 C 300.15625 98.757812 300.996094 98.589844 301.796875 98.257812 C 302.601562 97.925781 303.3125 97.453125 303.925781 96.835938 C 304.542969 96.222656 305.015625 95.511719 305.347656 94.707031 C 305.679688 93.90625 305.847656 93.066406 305.847656 92.199219 C 305.847656 91.328125 305.679688 90.492188 305.347656 89.6875 C 305.015625 88.882812 304.542969 88.175781 303.925781 87.558594 C 303.3125 86.945312 302.601562 86.472656 301.796875 86.136719 C 300.996094 85.804688 300.15625 85.636719 299.289062 85.636719 Z M 299.289062 85.636719 " clip-rule="nonzero"/></clipPath><clipPath id="400941920f"><path d="M 279.609375 63.785156 L 292.730469 63.785156 L 292.730469 76.902344 L 279.609375 76.902344 Z M 279.609375 63.785156 " clip-rule="nonzero"/></clipPath><clipPath id="a5e84188c2"><path d="M 286.167969 63.785156 C 285.300781 63.785156 284.460938 63.949219 283.660156 64.285156 C 282.855469 64.617188 282.144531 65.089844 281.53125 65.707031 C 280.914062 66.320312 280.441406 67.03125 280.109375 67.832031 C 279.777344 68.636719 279.609375 69.472656 279.609375 70.34375 C 279.609375 71.214844 279.777344 72.050781 280.109375 72.855469 C 280.441406 73.65625 280.914062 74.367188 281.53125 74.980469 C 282.144531 75.597656 282.855469 76.070312 283.660156 76.402344 C 284.460938 76.738281 285.300781 76.902344 286.167969 76.902344 C 287.039062 76.902344 287.875 76.738281 288.679688 76.402344 C 289.484375 76.070312 290.191406 75.597656 290.808594 74.980469 C 291.421875 74.367188 291.894531 73.65625 292.230469 72.855469 C 292.5625 72.050781 292.730469 71.214844 292.730469 70.34375 C 292.730469 69.472656 292.5625 68.636719 292.230469 67.832031 C 291.894531 67.03125 291.421875 66.320312 290.808594 65.707031 C 290.191406 65.089844 289.484375 64.617188 288.679688 64.285156 C 287.875 63.949219 287.039062 63.785156 286.167969 63.785156 Z M 286.167969 63.785156 " clip-rule="nonzero"/></clipPath></defs><g fill="#0e1114" fill-opacity="1"><g transform="translate(81.487959, 79.298573)"><g><path d="M 12.390625 -7.640625 C 13.203125 -7.378906 13.84375 -6.9375 14.3125 -6.3125 C 14.789062 -5.6875 15.03125 -4.910156 15.03125 -3.984375 C 15.03125 -2.710938 14.539062 -1.726562 13.5625 -1.03125 C 12.582031 -0.34375 11.15625 0 9.28125 0 L 1.96875 0 L 1.96875 -14.703125 L 8.859375 -14.703125 C 10.597656 -14.703125 11.9375 -14.359375 12.875 -13.671875 C 13.8125 -12.992188 14.28125 -12.0625 14.28125 -10.875 C 14.28125 -10.144531 14.109375 -9.5 13.765625 -8.9375 C 13.429688 -8.382812 12.972656 -7.953125 12.390625 -7.640625 Z M 4.703125 -12.5625 L 4.703125 -8.5 L 8.5625 -8.5 C 9.519531 -8.5 10.253906 -8.671875 10.765625 -9.015625 C 11.273438 -9.359375 11.53125 -9.859375 11.53125 -10.515625 C 11.53125 -11.191406 11.273438 -11.703125 10.765625 -12.046875 C 10.253906 -12.390625 9.519531 -12.5625 8.5625 -12.5625 Z M 9.109375 -2.140625 C 11.222656 -2.140625 12.28125 -2.847656 12.28125 -4.265625 C 12.28125 -5.679688 11.222656 -6.390625 9.109375 -6.390625 L 4.703125 -6.390625 L 4.703125 -2.140625 Z M 9.109375 -2.140625 "/></g></g></g><g fill="#0e1114" fill-opacity="1"><g transform="translate(106.704626, 79.298573)"><g><path d="M 1.15625 -6.9375 L 6.9375 -6.9375 L 6.9375 -4.75 L 1.15625 -4.75 Z M 1.15625 -6.9375 "/></g></g></g><g fill="#0e1114" fill-opacity="1"><g transform="translate(124.026885, 79.298573)"><g><path d="M 15.484375 0 L 15.453125 -9.75 L 10.625 -1.6875 L 9.40625 -1.6875 L 4.578125 -9.625 L 4.578125 0 L 1.96875 0 L 1.96875 -14.703125 L 4.21875 -14.703125 L 10.0625 -4.953125 L 15.796875 -14.703125 L 18.03125 -14.703125 L 18.0625 0 Z M 15.484375 0 "/></g></g></g><g fill="#0e1114" fill-opacity="1"><g transform="translate(153.316727, 79.298573)"><g><path d="M 11.515625 -3.40625 L 4.15625 -3.40625 L 2.703125 0 L -0.109375 0 L 6.515625 -14.703125 L 9.203125 -14.703125 L 15.828125 0 L 12.984375 0 Z M 10.609375 -5.546875 L 7.828125 -11.96875 L 5.078125 -5.546875 Z M 10.609375 -5.546875 "/></g></g></g><g fill="#0e1114" fill-opacity="1"><g transform="translate(178.281445, 79.298573)"><g><path d="M 11.59375 0 L 8.59375 -4.3125 C 8.46875 -4.289062 8.273438 -4.28125 8.015625 -4.28125 L 4.703125 -4.28125 L 4.703125 0 L 1.96875 0 L 1.96875 -14.703125 L 8.015625 -14.703125 C 9.296875 -14.703125 10.40625 -14.488281 11.34375 -14.0625 C 12.289062 -13.644531 13.015625 -13.046875 13.515625 -12.265625 C 14.023438 -11.484375 14.28125 -10.550781 14.28125 -9.46875 C 14.28125 -8.363281 14.007812 -7.410156 13.46875 -6.609375 C 12.925781 -5.816406 12.15625 -5.222656 11.15625 -4.828125 L 14.53125 0 Z M 11.53125 -9.46875 C 11.53125 -10.40625 11.222656 -11.125 10.609375 -11.625 C 9.992188 -12.132812 9.085938 -12.390625 7.890625 -12.390625 L 4.703125 -12.390625 L 4.703125 -6.53125 L 7.890625 -6.53125 C 9.085938 -6.53125 9.992188 -6.785156 10.609375 -7.296875 C 11.222656 -7.804688 11.53125 -8.53125 11.53125 -9.46875 Z M 11.53125 -9.46875 "/></g></g></g><g fill="#0e1114" fill-opacity="1"><g transform="translate(202.868239, 79.298573)"><g><path d="M 7.03125 -6.15625 L 4.703125 -3.765625 L 4.703125 0 L 1.96875 0 L 1.96875 -14.703125 L 4.703125 -14.703125 L 4.703125 -7.15625 L 11.96875 -14.703125 L 15.03125 -14.703125 L 8.859375 -8.125 L 15.40625 0 L 12.21875 0 Z M 7.03125 -6.15625 "/></g></g></g><g fill="#0e1114" fill-opacity="1"><g transform="translate(83.279677, 99.751253)"><g><path d="M 0.609375 -7.453125 L 4.28125 -7.453125 C 5.113281 -7.453125 5.847656 -7.300781 6.484375 -7 C 7.117188 -6.695312 7.613281 -6.265625 7.96875 -5.703125 C 8.320312 -5.148438 8.5 -4.492188 8.5 -3.734375 C 8.5 -2.972656 8.320312 -2.3125 7.96875 -1.75 C 7.613281 -1.1875 7.117188 -0.753906 6.484375 -0.453125 C 5.847656 -0.148438 5.113281 0 4.28125 0 L 0.609375 0 Z M 4.171875 -1.953125 C 4.710938 -1.953125 5.144531 -2.109375 5.46875 -2.421875 C 5.789062 -2.734375 5.953125 -3.171875 5.953125 -3.734375 C 5.953125 -4.296875 5.789062 -4.726562 5.46875 -5.03125 C 5.144531 -5.34375 4.710938 -5.5 4.171875 -5.5 L 3.125 -5.5 L 3.125 -1.953125 Z M 4.171875 -1.953125 "/></g></g></g><g fill="#0e1114" fill-opacity="1"><g transform="translate(94.964696, 99.751253)"><g><path d="M 6.8125 -1.890625 L 6.8125 0 L 0.609375 0 L 0.609375 -7.453125 L 6.671875 -7.453125 L 6.671875 -5.5625 L 3.078125 -5.5625 L 3.078125 -4.6875 L 6.234375 -4.6875 L 6.234375 -2.875 L 3.078125 -2.875 L 3.078125 -1.890625 Z M 3.9375 -9.765625 L 6.21875 -9.765625 L 4.125 -8.0625 L 2.53125 -8.0625 Z M 3.9375 -9.765625 "/></g></g></g><g fill="#0e1114" fill-opacity="1"><g transform="translate(105.018574, 99.751253)"><g><path d="M 4.46875 0.171875 C 3.675781 0.171875 2.960938 0.00390625 2.328125 -0.328125 C 1.703125 -0.660156 1.207031 -1.117188 0.84375 -1.703125 C 0.488281 -2.296875 0.3125 -2.972656 0.3125 -3.734375 C 0.3125 -4.484375 0.488281 -5.15625 0.84375 -5.75 C 1.207031 -6.34375 1.703125 -6.800781 2.328125 -7.125 C 2.960938 -7.457031 3.675781 -7.625 4.46875 -7.625 C 5.1875 -7.625 5.828125 -7.492188 6.390625 -7.234375 C 6.960938 -6.984375 7.4375 -6.617188 7.8125 -6.140625 L 6.21875 -4.71875 C 5.757812 -5.300781 5.21875 -5.59375 4.59375 -5.59375 C 4.0625 -5.59375 3.632812 -5.421875 3.3125 -5.078125 C 3 -4.742188 2.84375 -4.296875 2.84375 -3.734375 C 2.84375 -3.160156 3 -2.703125 3.3125 -2.359375 C 3.632812 -2.023438 4.0625 -1.859375 4.59375 -1.859375 C 5.21875 -1.859375 5.757812 -2.148438 6.21875 -2.734375 L 7.8125 -1.328125 C 7.4375 -0.835938 6.960938 -0.460938 6.390625 -0.203125 C 5.828125 0.046875 5.1875 0.171875 4.46875 0.171875 Z M 4.46875 0.171875 "/></g></g></g><g fill="#0e1114" fill-opacity="1"><g transform="translate(115.829387, 99.751253)"><g><path d="M 4.515625 0.171875 C 3.710938 0.171875 2.988281 0.00390625 2.34375 -0.328125 C 1.707031 -0.660156 1.207031 -1.125 0.84375 -1.71875 C 0.488281 -2.3125 0.3125 -2.984375 0.3125 -3.734375 C 0.3125 -4.472656 0.488281 -5.140625 0.84375 -5.734375 C 1.207031 -6.328125 1.707031 -6.789062 2.34375 -7.125 C 2.988281 -7.457031 3.710938 -7.625 4.515625 -7.625 C 5.316406 -7.625 6.035156 -7.457031 6.671875 -7.125 C 7.316406 -6.789062 7.820312 -6.328125 8.1875 -5.734375 C 8.550781 -5.140625 8.734375 -4.472656 8.734375 -3.734375 C 8.734375 -2.984375 8.550781 -2.3125 8.1875 -1.71875 C 7.820312 -1.125 7.316406 -0.660156 6.671875 -0.328125 C 6.035156 0.00390625 5.316406 0.171875 4.515625 0.171875 Z M 4.515625 -1.859375 C 4.828125 -1.859375 5.109375 -1.9375 5.359375 -2.09375 C 5.617188 -2.25 5.820312 -2.46875 5.96875 -2.75 C 6.113281 -3.03125 6.1875 -3.359375 6.1875 -3.734375 C 6.1875 -4.109375 6.113281 -4.4375 5.96875 -4.71875 C 5.820312 -5 5.617188 -5.210938 5.359375 -5.359375 C 5.109375 -5.515625 4.828125 -5.59375 4.515625 -5.59375 C 4.203125 -5.59375 3.921875 -5.515625 3.671875 -5.359375 C 3.421875 -5.210938 3.21875 -5 3.0625 -4.71875 C 2.914062 -4.4375 2.84375 -4.109375 2.84375 -3.734375 C 2.84375 -3.359375 2.914062 -3.03125 3.0625 -2.75 C 3.21875 -2.46875 3.421875 -2.25 3.671875 -2.09375 C 3.921875 -1.9375 4.203125 -1.859375 4.515625 -1.859375 Z M 4.515625 -1.859375 "/></g></g></g><g fill="#0e1114" fill-opacity="1"><g transform="translate(127.748947, 99.751253)"><g><path d="M 3.796875 -1.875 L 3.125 -1.875 L 3.125 0 L 0.609375 0 L 0.609375 -7.453125 L 4.203125 -7.453125 C 4.890625 -7.453125 5.488281 -7.335938 6 -7.109375 C 6.507812 -6.890625 6.898438 -6.566406 7.171875 -6.140625 C 7.453125 -5.710938 7.59375 -5.210938 7.59375 -4.640625 C 7.59375 -4.109375 7.472656 -3.644531 7.234375 -3.25 C 6.992188 -2.851562 6.644531 -2.535156 6.1875 -2.296875 L 7.765625 0 L 5.078125 0 Z M 5.0625 -4.640625 C 5.0625 -4.921875 4.972656 -5.132812 4.796875 -5.28125 C 4.628906 -5.4375 4.375 -5.515625 4.03125 -5.515625 L 3.125 -5.515625 L 3.125 -3.765625 L 4.03125 -3.765625 C 4.375 -3.765625 4.628906 -3.84375 4.796875 -4 C 4.972656 -4.15625 5.0625 -4.367188 5.0625 -4.640625 Z M 5.0625 -4.640625 "/></g></g></g><g clip-path="url(#4e5e311c18)"><g clip-path="url(#7364b5a429)"><path fill="#000000" d="M 266.492188 85.636719 L 279.609375 85.636719 L 279.609375 98.757812 L 266.492188 98.757812 Z M 266.492188 85.636719 " fill-opacity="1" fill-rule="nonzero"/></g></g><g clip-path="url(#b03c60645c)"><g clip-path="url(#a0c0652d93)"><path fill="#000000" d="M 292.730469 85.636719 L 305.847656 85.636719 L 305.847656 98.757812 L 292.730469 98.757812 Z M 292.730469 85.636719 " fill-opacity="1" fill-rule="nonzero"/></g></g><g clip-path="url(#400941920f)"><g clip-path="url(#a5e84188c2)"><path fill="#000000" d="M 279.609375 63.785156 L 292.730469 63.785156 L 292.730469 76.902344 L 279.609375 76.902344 Z M 279.609375 63.785156 " fill-opacity="1" fill-rule="nonzero"/></g></g></svg>