<svg xmlns="http://www.w3.org/2000/svg" xmlns:xlink="http://www.w3.org/1999/xlink" width="1500" zoomAndPan="magnify" viewBox="0 0 1125 1124.99995" height="1500" preserveAspectRatio="xMidYMid meet" version="1.0"><defs><g/><clipPath id="105982b7a1"><path d="M 825.019531 641.585938 L 892.855469 641.585938 L 892.855469 709.421875 L 825.019531 709.421875 Z M 825.019531 641.585938 " clip-rule="nonzero"/></clipPath><clipPath id="fb3323fda3"><path d="M 858.9375 641.585938 C 856.710938 641.585938 854.503906 641.804688 852.320312 642.238281 C 850.136719 642.671875 848.015625 643.316406 845.957031 644.167969 C 843.898438 645.019531 841.945312 646.0625 840.09375 647.300781 C 838.242188 648.539062 836.527344 649.945312 834.953125 651.519531 C 833.378906 653.09375 831.972656 654.808594 830.734375 656.660156 C 829.496094 658.511719 828.453125 660.464844 827.601562 662.523438 C 826.75 664.582031 826.105469 666.703125 825.671875 668.886719 C 825.234375 671.070312 825.019531 673.277344 825.019531 675.503906 C 825.019531 677.730469 825.234375 679.9375 825.671875 682.121094 C 826.105469 684.304688 826.75 686.425781 827.601562 688.484375 C 828.453125 690.539062 829.496094 692.496094 830.734375 694.347656 C 831.972656 696.199219 833.378906 697.910156 834.953125 699.488281 C 836.527344 701.0625 838.242188 702.46875 840.09375 703.703125 C 841.945312 704.941406 843.898438 705.988281 845.957031 706.839844 C 848.015625 707.691406 850.136719 708.335938 852.320312 708.769531 C 854.503906 709.203125 856.710938 709.421875 858.9375 709.421875 C 861.164062 709.421875 863.367188 709.203125 865.554688 708.769531 C 867.738281 708.335938 869.859375 707.691406 871.914062 706.839844 C 873.972656 705.988281 875.929688 704.941406 877.78125 703.703125 C 879.632812 702.46875 881.34375 701.0625 882.917969 699.488281 C 884.492188 697.910156 885.898438 696.199219 887.136719 694.347656 C 888.375 692.496094 889.417969 690.539062 890.273438 688.484375 C 891.125 686.425781 891.765625 684.304688 892.203125 682.121094 C 892.636719 679.9375 892.855469 677.730469 892.855469 675.503906 C 892.855469 673.277344 892.636719 671.070312 892.203125 668.886719 C 891.765625 666.703125 891.125 664.582031 890.273438 662.523438 C 889.417969 660.464844 888.375 658.511719 887.136719 656.660156 C 885.898438 654.808594 884.496094 653.09375 882.917969 651.519531 C 881.34375 649.945312 879.632812 648.539062 877.78125 647.300781 C 875.929688 646.066406 873.972656 645.019531 871.914062 644.167969 C 869.859375 643.316406 867.738281 642.671875 865.554688 642.238281 C 863.367188 641.804688 861.164062 641.585938 858.9375 641.585938 Z M 858.9375 641.585938 " clip-rule="nonzero"/></clipPath><clipPath id="e68903c30f"><path d="M 960.6875 641.585938 L 1028.523438 641.585938 L 1028.523438 709.421875 L 960.6875 709.421875 Z M 960.6875 641.585938 " clip-rule="nonzero"/></clipPath><clipPath id="6e924fec62"><path d="M 994.605469 641.585938 C 992.378906 641.585938 990.171875 641.804688 987.988281 642.238281 C 985.804688 642.671875 983.683594 643.316406 981.625 644.167969 C 979.570312 645.019531 977.613281 646.0625 975.761719 647.300781 C 973.910156 648.539062 972.199219 649.945312 970.621094 651.519531 C 969.046875 653.09375 967.640625 654.808594 966.40625 656.660156 C 965.167969 658.511719 964.121094 660.464844 963.269531 662.523438 C 962.417969 664.582031 961.773438 666.703125 961.339844 668.886719 C 960.90625 671.070312 960.6875 673.277344 960.6875 675.503906 C 960.6875 677.730469 960.90625 679.9375 961.339844 682.121094 C 961.773438 684.304688 962.417969 686.425781 963.269531 688.484375 C 964.121094 690.539062 965.167969 692.496094 966.40625 694.347656 C 967.640625 696.199219 969.046875 697.910156 970.621094 699.488281 C 972.199219 701.0625 973.910156 702.46875 975.761719 703.703125 C 977.613281 704.941406 979.570312 705.988281 981.625 706.839844 C 983.683594 707.691406 985.804688 708.335938 987.988281 708.769531 C 990.171875 709.203125 992.378906 709.421875 994.605469 709.421875 C 996.832031 709.421875 999.039062 709.203125 1001.222656 708.769531 C 1003.40625 708.335938 1005.527344 707.691406 1007.585938 706.839844 C 1009.644531 705.988281 1011.597656 704.941406 1013.449219 703.703125 C 1015.300781 702.46875 1017.015625 701.0625 1018.589844 699.488281 C 1020.164062 697.910156 1021.570312 696.199219 1022.808594 694.347656 C 1024.042969 692.496094 1025.089844 690.539062 1025.941406 688.484375 C 1026.792969 686.425781 1027.4375 684.304688 1027.871094 682.121094 C 1028.304688 679.9375 1028.523438 677.730469 1028.523438 675.503906 C 1028.523438 673.277344 1028.304688 671.070312 1027.871094 668.886719 C 1027.4375 666.703125 1026.792969 664.582031 1025.941406 662.523438 C 1025.089844 660.464844 1024.042969 658.511719 1022.808594 656.660156 C 1021.570312 654.808594 1020.164062 653.09375 1018.589844 651.519531 C 1017.015625 649.945312 1015.300781 648.539062 1013.449219 647.300781 C 1011.597656 646.066406 1009.644531 645.019531 1007.585938 644.167969 C 1005.527344 643.316406 1003.40625 642.671875 1001.222656 642.238281 C 999.039062 641.804688 996.832031 641.585938 994.605469 641.585938 Z M 994.605469 641.585938 " clip-rule="nonzero"/></clipPath><clipPath id="2332b69dc4"><path d="M 892.855469 528.582031 L 960.6875 528.582031 L 960.6875 596.417969 L 892.855469 596.417969 Z M 892.855469 528.582031 " clip-rule="nonzero"/></clipPath><clipPath id="59dd62e2d0"><path d="M 926.769531 528.582031 C 924.542969 528.582031 922.339844 528.800781 920.152344 529.234375 C 917.96875 529.667969 915.847656 530.3125 913.792969 531.164062 C 911.734375 532.015625 909.78125 533.0625 907.925781 534.296875 C 906.074219 535.535156 904.363281 536.941406 902.789062 538.515625 C 901.214844 540.089844 899.808594 541.804688 898.570312 543.65625 C 897.332031 545.507812 896.289062 547.460938 895.433594 549.519531 C 894.582031 551.578125 893.941406 553.699219 893.503906 555.882812 C 893.070312 558.066406 892.855469 560.273438 892.855469 562.5 C 892.855469 564.726562 893.070312 566.933594 893.503906 569.117188 C 893.941406 571.300781 894.582031 573.421875 895.433594 575.480469 C 896.289062 577.535156 897.332031 579.492188 898.570312 581.34375 C 899.808594 583.195312 901.214844 584.910156 902.789062 586.484375 C 904.363281 588.058594 906.074219 589.464844 907.925781 590.699219 C 909.78125 591.9375 911.734375 592.984375 913.792969 593.835938 C 915.847656 594.6875 917.96875 595.332031 920.152344 595.765625 C 922.339844 596.199219 924.542969 596.417969 926.769531 596.417969 C 929 596.417969 931.203125 596.199219 933.386719 595.765625 C 935.570312 595.332031 937.691406 594.6875 939.75 593.835938 C 941.808594 592.984375 943.761719 591.9375 945.613281 590.699219 C 947.464844 589.464844 949.179688 588.058594 950.753906 586.484375 C 952.328125 584.910156 953.734375 583.195312 954.972656 581.34375 C 956.210938 579.492188 957.253906 577.535156 958.105469 575.480469 C 958.957031 573.421875 959.601562 571.300781 960.035156 569.117188 C 960.472656 566.933594 960.6875 564.726562 960.6875 562.5 C 960.6875 560.273438 960.472656 558.066406 960.035156 555.882812 C 959.601562 553.699219 958.957031 551.578125 958.105469 549.519531 C 957.253906 547.460938 956.210938 545.507812 954.972656 543.65625 C 953.734375 541.804688 952.328125 540.089844 950.753906 538.515625 C 949.179688 536.941406 947.464844 535.535156 945.613281 534.296875 C 943.761719 533.0625 941.808594 532.015625 939.75 531.164062 C 937.691406 530.3125 935.570312 529.667969 933.386719 529.234375 C 931.203125 528.800781 929 528.582031 926.769531 528.582031 Z M 926.769531 528.582031 " clip-rule="nonzero"/></clipPath></defs><g fill="#0e1114" fill-opacity="1"><g transform="translate(112.500015, 598.477872)"><g><path d="M 64.046875 -39.515625 C 68.242188 -38.140625 71.570312 -35.84375 74.03125 -32.625 C 76.5 -29.40625 77.734375 -25.40625 77.734375 -20.625 C 77.734375 -14.039062 75.195312 -8.957031 70.125 -5.375 C 65.0625 -1.789062 57.679688 0 47.984375 0 L 10.203125 0 L 10.203125 -76 L 45.8125 -76 C 54.789062 -76 61.703125 -74.242188 66.546875 -70.734375 C 71.398438 -67.222656 73.828125 -62.390625 73.828125 -56.234375 C 73.828125 -52.472656 72.957031 -49.144531 71.21875 -46.25 C 69.476562 -43.351562 67.085938 -41.109375 64.046875 -39.515625 Z M 24.3125 -64.921875 L 24.3125 -43.96875 L 44.296875 -43.96875 C 49.210938 -43.96875 52.988281 -44.851562 55.625 -46.625 C 58.269531 -48.394531 59.59375 -50.984375 59.59375 -54.390625 C 59.59375 -57.859375 58.269531 -60.476562 55.625 -62.25 C 52.988281 -64.03125 49.210938 -64.921875 44.296875 -64.921875 Z M 47.109375 -11.078125 C 58.046875 -11.078125 63.515625 -14.726562 63.515625 -22.03125 C 63.515625 -29.34375 58.046875 -33 47.109375 -33 L 24.3125 -33 L 24.3125 -11.078125 Z M 47.109375 -11.078125 "/></g></g></g><g fill="#0e1114" fill-opacity="1"><g transform="translate(242.887602, 598.477872)"><g><path d="M 5.96875 -35.828125 L 35.828125 -35.828125 L 35.828125 -24.53125 L 5.96875 -24.53125 Z M 5.96875 -35.828125 "/></g></g></g><g fill="#0e1114" fill-opacity="1"><g transform="translate(332.455648, 598.477872)"><g><path d="M 80.015625 0 L 79.90625 -50.375 L 54.9375 -8.6875 L 48.640625 -8.6875 L 23.671875 -49.71875 L 23.671875 0 L 10.203125 0 L 10.203125 -76 L 21.828125 -76 L 52 -25.625 L 81.640625 -76 L 93.25 -76 L 93.359375 0 Z M 80.015625 0 "/></g></g></g><g fill="#0e1114" fill-opacity="1"><g transform="translate(483.904365, 598.477872)"><g><path d="M 59.5 -17.59375 L 21.5 -17.59375 L 14 0 L -0.546875 0 L 33.65625 -76 L 47.546875 -76 L 81.859375 0 L 67.09375 0 Z M 54.828125 -28.65625 L 40.5 -61.875 L 26.265625 -28.65625 Z M 54.828125 -28.65625 "/></g></g></g><g fill="#0e1114" fill-opacity="1"><g transform="translate(612.989201, 598.477872)"><g><path d="M 59.921875 0 L 44.40625 -22.25 C 43.75 -22.175781 42.769531 -22.140625 41.46875 -22.140625 L 24.3125 -22.140625 L 24.3125 0 L 10.203125 0 L 10.203125 -76 L 41.46875 -76 C 48.050781 -76 53.785156 -74.910156 58.671875 -72.734375 C 63.554688 -70.566406 67.300781 -67.457031 69.90625 -63.40625 C 72.519531 -59.351562 73.828125 -54.539062 73.828125 -48.96875 C 73.828125 -43.25 72.429688 -38.328125 69.640625 -34.203125 C 66.859375 -30.078125 62.859375 -27 57.640625 -24.96875 L 75.125 0 Z M 59.59375 -48.96875 C 59.59375 -53.8125 58 -57.535156 54.8125 -60.140625 C 51.632812 -62.742188 46.96875 -64.046875 40.8125 -64.046875 L 24.3125 -64.046875 L 24.3125 -33.765625 L 40.8125 -33.765625 C 46.96875 -33.765625 51.632812 -35.082031 54.8125 -37.71875 C 58 -40.363281 59.59375 -44.113281 59.59375 -48.96875 Z M 59.59375 -48.96875 "/></g></g></g><g fill="#0e1114" fill-opacity="1"><g transform="translate(740.119913, 598.477872)"><g><path d="M 36.375 -31.8125 L 24.3125 -19.4375 L 24.3125 0 L 10.203125 0 L 10.203125 -76 L 24.3125 -76 L 24.3125 -37.015625 L 61.875 -76 L 77.734375 -76 L 45.8125 -42.015625 L 79.6875 0 L 63.1875 0 Z M 36.375 -31.8125 "/></g></g></g><g fill="#0e1114" fill-opacity="1"><g transform="translate(121.764418, 704.232351)"><g><path d="M 3.140625 -38.59375 L 22.15625 -38.59375 C 26.457031 -38.59375 30.253906 -37.8125 33.546875 -36.25 C 36.835938 -34.6875 39.390625 -32.453125 41.203125 -29.546875 C 43.023438 -26.640625 43.9375 -23.222656 43.9375 -19.296875 C 43.9375 -15.359375 43.023438 -11.9375 41.203125 -9.03125 C 39.390625 -6.132812 36.835938 -3.90625 33.546875 -2.34375 C 30.253906 -0.78125 26.457031 0 22.15625 0 L 3.140625 0 Z M 21.609375 -10.140625 C 24.398438 -10.140625 26.628906 -10.9375 28.296875 -12.53125 C 29.972656 -14.132812 30.8125 -16.390625 30.8125 -19.296875 C 30.8125 -22.203125 29.972656 -24.453125 28.296875 -26.046875 C 26.628906 -27.640625 24.398438 -28.4375 21.609375 -28.4375 L 16.15625 -28.4375 L 16.15625 -10.140625 Z M 21.609375 -10.140625 "/></g></g></g><g fill="#0e1114" fill-opacity="1"><g transform="translate(182.184039, 704.232351)"><g><path d="M 35.21875 -9.8125 L 35.21875 0 L 3.140625 0 L 3.140625 -38.59375 L 34.515625 -38.59375 L 34.515625 -28.78125 L 15.9375 -28.78125 L 15.9375 -24.25 L 32.25 -24.25 L 32.25 -14.890625 L 15.9375 -14.890625 L 15.9375 -9.8125 Z M 20.34375 -50.546875 L 32.1875 -50.546875 L 21.328125 -41.734375 L 13.0625 -41.734375 Z M 20.34375 -50.546875 "/></g></g></g><g fill="#0e1114" fill-opacity="1"><g transform="translate(234.169537, 704.232351)"><g><path d="M 23.09375 0.875 C 19.019531 0.875 15.347656 0.0195312 12.078125 -1.6875 C 8.804688 -3.394531 6.238281 -5.78125 4.375 -8.84375 C 2.519531 -11.914062 1.59375 -15.398438 1.59375 -19.296875 C 1.59375 -23.191406 2.519531 -26.671875 4.375 -29.734375 C 6.238281 -32.804688 8.804688 -35.195312 12.078125 -36.90625 C 15.347656 -38.613281 19.019531 -39.46875 23.09375 -39.46875 C 26.84375 -39.46875 30.1875 -38.804688 33.125 -37.484375 C 36.070312 -36.160156 38.5 -34.25 40.40625 -31.75 L 32.1875 -24.421875 C 29.800781 -27.429688 26.992188 -28.9375 23.765625 -28.9375 C 21.035156 -28.9375 18.84375 -28.0625 17.1875 -26.3125 C 15.539062 -24.570312 14.71875 -22.234375 14.71875 -19.296875 C 14.71875 -16.359375 15.539062 -14.015625 17.1875 -12.265625 C 18.84375 -10.515625 21.035156 -9.640625 23.765625 -9.640625 C 26.992188 -9.640625 29.800781 -11.148438 32.1875 -14.171875 L 40.40625 -6.828125 C 38.5 -4.335938 36.070312 -2.429688 33.125 -1.109375 C 30.1875 0.210938 26.84375 0.875 23.09375 0.875 Z M 23.09375 0.875 "/></g></g></g><g fill="#0e1114" fill-opacity="1"><g transform="translate(290.068908, 704.232351)"><g><path d="M 23.375 0.875 C 19.21875 0.875 15.484375 0.015625 12.171875 -1.703125 C 8.867188 -3.429688 6.28125 -5.828125 4.40625 -8.890625 C 2.53125 -11.960938 1.59375 -15.429688 1.59375 -19.296875 C 1.59375 -23.148438 2.53125 -26.609375 4.40625 -29.671875 C 6.28125 -32.742188 8.867188 -35.144531 12.171875 -36.875 C 15.484375 -38.601562 19.21875 -39.46875 23.375 -39.46875 C 27.53125 -39.46875 31.257812 -38.601562 34.5625 -36.875 C 37.875 -35.144531 40.460938 -32.742188 42.328125 -29.671875 C 44.203125 -26.609375 45.140625 -23.148438 45.140625 -19.296875 C 45.140625 -15.429688 44.203125 -11.960938 42.328125 -8.890625 C 40.460938 -5.828125 37.875 -3.429688 34.5625 -1.703125 C 31.257812 0.015625 27.53125 0.875 23.375 0.875 Z M 23.375 -9.640625 C 24.988281 -9.640625 26.445312 -10.035156 27.75 -10.828125 C 29.0625 -11.617188 30.101562 -12.738281 30.875 -14.1875 C 31.644531 -15.644531 32.03125 -17.347656 32.03125 -19.296875 C 32.03125 -21.242188 31.644531 -22.941406 30.875 -24.390625 C 30.101562 -25.835938 29.0625 -26.957031 27.75 -27.75 C 26.445312 -28.539062 24.988281 -28.9375 23.375 -28.9375 C 21.757812 -28.9375 20.296875 -28.539062 18.984375 -27.75 C 17.679688 -26.957031 16.644531 -25.835938 15.875 -24.390625 C 15.101562 -22.941406 14.71875 -21.242188 14.71875 -19.296875 C 14.71875 -17.347656 15.101562 -15.644531 15.875 -14.1875 C 16.644531 -12.738281 17.679688 -11.617188 18.984375 -10.828125 C 20.296875 -10.035156 21.757812 -9.640625 23.375 -9.640625 Z M 23.375 -9.640625 "/></g></g></g><g fill="#0e1114" fill-opacity="1"><g transform="translate(351.701265, 704.232351)"><g><path d="M 19.671875 -9.703125 L 16.15625 -9.703125 L 16.15625 0 L 3.140625 0 L 3.140625 -38.59375 L 21.71875 -38.59375 C 25.28125 -38.59375 28.382812 -38.003906 31.03125 -36.828125 C 33.675781 -35.648438 35.710938 -33.957031 37.140625 -31.75 C 38.578125 -29.539062 39.296875 -26.96875 39.296875 -24.03125 C 39.296875 -21.28125 38.671875 -18.875 37.421875 -16.8125 C 36.179688 -14.75 34.382812 -13.113281 32.03125 -11.90625 L 40.125 0 L 26.234375 0 Z M 26.1875 -24.03125 C 26.1875 -25.46875 25.742188 -26.582031 24.859375 -27.375 C 23.972656 -28.164062 22.648438 -28.5625 20.890625 -28.5625 L 16.15625 -28.5625 L 16.15625 -19.515625 L 20.890625 -19.515625 C 22.648438 -19.515625 23.972656 -19.910156 24.859375 -20.703125 C 25.742188 -21.492188 26.1875 -22.601562 26.1875 -24.03125 Z M 26.1875 -24.03125 "/></g></g></g><g clip-path="url(#105982b7a1)"><g clip-path="url(#fb3323fda3)"><path fill="#000000" d="M 825.019531 641.585938 L 892.855469 641.585938 L 892.855469 709.421875 L 825.019531 709.421875 Z M 825.019531 641.585938 " fill-opacity="1" fill-rule="nonzero"/></g></g><g clip-path="url(#e68903c30f)"><g clip-path="url(#6e924fec62)"><path fill="#000000" d="M 960.6875 641.585938 L 1028.523438 641.585938 L 1028.523438 709.421875 L 960.6875 709.421875 Z M 960.6875 641.585938 " fill-opacity="1" fill-rule="nonzero"/></g></g><g clip-path="url(#2332b69dc4)"><g clip-path="url(#59dd62e2d0)"><path fill="#000000" d="M 892.855469 528.582031 L 960.6875 528.582031 L 960.6875 596.417969 L 892.855469 596.417969 Z M 892.855469 528.582031 " fill-opacity="1" fill-rule="nonzero"/></g></g></svg>